<?xml version="1.0" standalone="no"?>
<!DOCTYPE svg PUBLIC "-//W3C//DTD SVG 20010904//EN"
 "http://www.w3.org/TR/2001/REC-SVG-20010904/DTD/svg10.dtd">
<svg version="1.0" xmlns="http://www.w3.org/2000/svg"
 width="1280.000000pt" height="1066.000000pt" viewBox="0 0 1280.000000 1066.000000"
 preserveAspectRatio="xMidYMid meet">
<metadata>
Created by potrace 1.15, written by Peter Selinger 2001-2017
</metadata>
<g transform="translate(0.000000,1066.000000) scale(0.100000,-0.100000)"
fill="#000000" stroke="none">
<path d="M0 5340 c0 -5313 0 -5320 20 -5320 11 0 20 -4 20 -10 0 -7 2133 -10
6380 -10 l6380 0 0 445 0 445 -70 0 -70 0 0 4770 0 4770 -55 0 c-30 0 -55 5
-55 10 0 7 -1947 10 -5820 10 l-5820 0 0 105 0 105 -455 0 -455 0 0 -5320z
m1380 4730 l0 -280 -235 0 -235 0 0 280 0 280 235 0 235 0 0 -280z m660 0 l0
-280 -275 0 -275 0 0 280 0 280 275 0 275 0 0 -280z m660 0 l0 -280 -275 0
-275 0 0 280 0 280 275 0 275 0 0 -280z m660 0 l0 -280 -275 0 -275 0 0 280 0
280 275 0 275 0 0 -280z m660 0 l0 -280 -275 0 -275 0 0 280 0 280 275 0 275
0 0 -280z m660 0 l0 -280 -275 0 -275 0 0 280 0 280 275 0 275 0 0 -280z m665
0 l0 -280 -277 0 -278 0 0 280 0 280 278 0 277 0 0 -280z m665 0 l0 -280 -280
0 -280 0 0 280 0 280 280 0 280 0 0 -280z m660 0 l0 -280 -280 0 -280 0 0 280
0 280 280 0 280 0 0 -280z m660 0 l0 -280 -280 0 -280 0 0 280 0 280 280 0
280 0 0 -280z m660 0 l0 -280 -280 0 -280 0 0 280 0 280 280 0 280 0 0 -280z
m660 0 l0 -280 -277 0 -278 0 0 280 0 280 278 0 277 0 0 -280z m660 0 l0 -280
-275 0 -275 0 0 280 0 280 275 0 275 0 0 -280z m660 0 l0 -280 -275 0 -275 0
0 280 0 280 275 0 275 0 0 -280z m660 0 l0 -280 -275 0 -275 0 0 280 0 280
275 0 275 0 0 -280z m658 34 l-3 -247 -85 -33 -85 -33 -187 0 -188 -1 0 280 0
280 275 0 275 0 -2 -246z m682 -34 l0 -280 -234 0 -234 0 14 63 c8 34 17 70
20 80 7 22 0 22 -74 -7 l-62 -25 0 225 0 224 285 0 285 0 0 -280z m580 0 l0
-280 -235 0 -235 0 0 280 0 280 235 0 235 0 0 -280z m-11170 -635 l0 -255
-235 0 -235 0 0 255 0 255 235 0 235 0 0 -255z m660 0 l0 -255 -275 0 -275 0
0 255 0 255 275 0 275 0 0 -255z m660 0 l0 -255 -275 0 -275 0 0 255 0 255
275 0 275 0 0 -255z m660 0 l0 -255 -275 0 -275 0 0 255 0 255 275 0 275 0 0
-255z m660 0 l0 -255 -275 0 -275 0 0 255 0 255 275 0 275 0 0 -255z m660 0
l0 -255 -275 0 -275 0 0 255 0 255 275 0 275 0 0 -255z m661 251 c2 -2 3 -117
1 -255 l-3 -251 -274 0 -275 0 0 255 0 255 273 0 c151 0 276 -2 278 -4z m667
-253 l2 -253 -280 0 -280 0 0 248 c0 137 3 252 7 255 4 4 128 6 277 5 l271 -3
3 -252z m660 0 l2 -253 -280 0 -280 0 0 248 c0 137 3 252 7 255 4 4 128 6 277
5 l271 -3 3 -252z m660 0 l2 -253 -280 0 -280 0 0 248 c0 137 3 252 7 255 4 4
128 6 277 5 l271 -3 3 -252z m660 0 l2 -253 -280 0 -280 0 0 248 c0 137 3 252
7 255 4 4 128 6 277 5 l271 -3 3 -252z m662 2 l0 -255 -275 0 -274 0 -3 251
c-2 138 -1 253 1 255 2 2 127 4 278 4 l273 0 0 -255z m660 0 l0 -255 -275 0
-275 0 0 255 0 255 275 0 275 0 0 -255z m660 88 l0 -168 -233 -88 c-161 -60
-245 -87 -274 -87 l-43 0 0 255 0 255 275 0 275 0 0 -167z m658 125 l-3 -42
-255 -98 c-140 -54 -263 -100 -272 -104 -17 -5 -18 6 -18 140 l0 146 276 0
275 0 -3 -42z m187 33 c-6 -4 -25 -13 -42 -19 -30 -10 -33 -9 -33 9 0 16 7 19
42 19 24 0 38 -4 33 -9z m1155 -246 l0 -255 -285 0 -285 0 0 94 c0 73 8 127
35 242 20 82 38 155 40 162 3 9 62 12 250 12 l245 0 0 -255z m580 0 l0 -255
-235 0 -235 0 0 255 0 255 235 0 235 0 0 -255z m-11170 -610 l0 -255 -235 0
-235 0 0 255 0 255 235 0 235 0 0 -255z m660 0 l0 -255 -275 0 -275 0 0 255 0
255 275 0 275 0 0 -255z m660 0 l0 -255 -275 0 -275 0 0 255 0 255 275 0 275
0 0 -255z m660 0 l0 -255 -275 0 -275 0 0 255 0 255 275 0 275 0 0 -255z m660
0 l0 -255 -275 0 -275 0 0 255 0 255 275 0 275 0 0 -255z m660 0 l0 -255 -275
0 -275 0 0 255 0 255 275 0 275 0 0 -255z m660 0 l0 -255 -275 0 -275 0 0 255
0 255 275 0 275 0 0 -255z m668 -2 l2 -253 -280 0 -280 0 0 255 0 255 278 -2
277 -3 3 -252z m660 0 l2 -253 -280 0 -280 0 0 248 c0 137 3 252 7 255 4 4
128 6 277 5 l271 -3 3 -252z m660 0 l2 -253 -280 0 -280 0 0 248 c0 137 3 252
7 255 4 4 128 6 277 5 l271 -3 3 -252z m662 17 l0 -240 -37 -15 c-30 -13 -79
-15 -277 -13 l-241 3 -3 240 c-1 132 0 245 2 252 4 10 67 13 281 13 l275 0 0
-240z m660 126 l0 -115 -78 -29 c-42 -17 -142 -55 -222 -85 -80 -31 -169 -65
-197 -76 l-53 -21 0 220 0 220 275 0 275 0 0 -114z m579 110 c-2 -3 -109 -45
-237 -94 l-232 -89 0 93 0 94 237 0 c130 0 234 -2 232 -4z m2741 -251 l0 -255
-285 0 -285 0 0 255 0 255 285 0 285 0 0 -255z m580 0 l0 -255 -235 0 -235 0
0 255 0 255 235 0 235 0 0 -255z m-1260 -100 l0 -155 -41 0 c-34 0 -40 3 -35
18 3 9 19 79 37 155 18 75 34 137 36 137 2 0 3 -70 3 -155z m-9910 -510 l0
-255 -235 0 -235 0 0 255 0 255 235 0 235 0 0 -255z m660 0 l0 -255 -275 0
-275 0 0 255 0 255 275 0 275 0 0 -255z m660 0 l0 -255 -275 0 -275 0 0 255 0
255 275 0 275 0 0 -255z m660 0 l0 -255 -275 0 -275 0 0 255 0 255 275 0 275
0 0 -255z m660 0 l0 -255 -275 0 -275 0 0 255 0 255 275 0 275 0 0 -255z m660
0 l0 -255 -275 0 -275 0 0 255 0 255 275 0 275 0 0 -255z m661 251 c2 -2 3
-117 1 -255 l-3 -251 -274 0 -275 0 0 255 0 255 273 0 c151 0 276 -2 278 -4z
m667 -253 l2 -253 -280 0 -280 0 0 255 0 255 278 -2 277 -3 3 -252z m660 69
l2 -183 -52 -23 c-29 -12 -95 -38 -145 -57 -51 -18 -93 -37 -93 -41 0 -4 64
-9 143 -11 78 -1 17 -4 -135 -5 l-278 -2 0 255 0 255 278 -2 277 -3 3 -183z
m660 126 l-3 -63 -265 -102 c-146 -56 -271 -102 -277 -102 -10 -1 -13 37 -13
157 0 87 3 162 7 165 3 4 130 7 280 7 l274 0 -3 -62z m302 58 c0 -4 -182 -76
-193 -76 -9 0 -9 64 0 73 7 7 193 10 193 3z m3660 -251 l0 -255 -110 0 c-84 0
-110 3 -110 13 0 14 106 462 115 485 3 7 24 12 55 12 l50 0 0 -255z m680 0 l0
-255 -285 0 -285 0 0 255 0 255 285 0 285 0 0 -255z m580 0 l0 -255 -235 0
-235 0 0 255 0 255 235 0 235 0 0 -255z m-11170 -610 l0 -255 -235 0 -235 0 0
255 0 255 235 0 235 0 0 -255z m660 0 l0 -255 -275 0 -275 0 0 255 0 255 275
0 275 0 0 -255z m660 0 l0 -255 -275 0 -275 0 0 255 0 255 275 0 275 0 0 -255z
m660 0 l0 -255 -275 0 -275 0 0 255 0 255 275 0 275 0 0 -255z m660 0 l0 -255
-275 0 -275 0 0 255 0 255 275 0 275 0 0 -255z m660 0 l0 -255 -275 0 -275 0
0 255 0 255 275 0 275 0 0 -255z m660 0 l0 -255 -275 0 -275 0 0 255 0 255
275 0 275 0 0 -255z m665 0 l0 -250 -277 -3 -278 -2 0 255 0 255 278 -2 277
-3 0 -250z m665 0 l0 -255 -280 0 -280 0 0 255 0 255 280 0 280 0 0 -255z
m660 0 l0 -255 -280 0 -280 0 0 255 0 255 280 0 280 0 0 -255z m660 0 l0 -255
-277 2 -278 3 -3 240 c-1 132 0 245 2 252 4 10 67 13 281 13 l275 0 0 -255z
m660 84 l0 -171 -67 -84 -66 -84 -209 0 -208 0 0 255 0 255 275 0 275 0 0
-171z m218 103 c-29 -37 -65 -83 -80 -102 l-28 -35 0 103 0 102 81 0 80 0 -53
-68z m2422 -187 l0 -255 -185 0 c-102 0 -185 1 -185 3 0 5 110 470 116 490 5
15 20 17 130 17 l124 0 0 -255z m680 0 l0 -255 -285 0 -285 0 0 255 0 255 285
0 285 0 0 -255z m580 0 l0 -255 -235 0 -235 0 0 255 0 255 235 0 235 0 0 -255z
m-2586 -126 c3 -17 6 -53 6 -80 l0 -49 -75 0 c-41 0 -75 2 -75 5 0 9 123 155
130 155 4 0 10 -14 14 -31z m-8584 -484 l0 -255 -235 0 -235 0 0 255 0 255
235 0 235 0 0 -255z m660 0 l0 -255 -275 0 -275 0 0 255 0 255 275 0 275 0 0
-255z m660 0 l0 -255 -275 0 -275 0 0 255 0 255 275 0 275 0 0 -255z m660 0
l0 -255 -275 0 -275 0 0 255 0 255 275 0 275 0 0 -255z m660 0 l0 -255 -275 0
-275 0 0 255 0 255 275 0 275 0 0 -255z m660 0 l0 -255 -275 0 -275 0 0 255 0
255 275 0 275 0 0 -255z m660 0 l0 -255 -275 0 -275 0 0 255 0 255 275 0 275
0 0 -255z m665 0 l0 -250 -277 -3 -278 -2 0 255 0 255 278 -2 277 -3 0 -250z
m665 0 l0 -255 -280 0 -280 0 0 255 0 255 280 0 280 0 0 -255z m660 0 l0 -255
-280 0 -280 0 0 255 0 255 280 0 280 0 0 -255z m660 0 l0 -255 -277 2 -278 3
-3 240 c-1 132 0 245 2 252 4 10 67 13 281 13 l275 0 0 -255z m429 235 c-31
-44 -314 -399 -319 -400 -3 0 -4 94 -2 210 l3 210 166 0 c162 0 165 0 152 -20z
m1551 -235 l0 -255 -275 0 -275 0 0 68 1 67 155 188 155 187 120 0 119 0 0
-255z m1320 0 l0 -255 -258 0 -259 0 60 255 61 255 198 0 198 0 0 -255z m680
0 l0 -255 -285 0 -285 0 0 255 0 255 285 0 285 0 0 -255z m580 0 l0 -255 -235
0 -235 0 0 255 0 255 235 0 235 0 0 -255z m-2370 -252 c0 -2 -22 -3 -50 -3
l-50 0 1 168 0 167 50 -165 c27 -90 49 -166 49 -167z m-8800 -358 l0 -255
-235 0 -235 0 0 255 0 255 235 0 235 0 0 -255z m660 0 l0 -255 -275 0 -275 0
0 255 0 255 275 0 275 0 0 -255z m660 0 l0 -255 -275 0 -275 0 0 255 0 255
275 0 275 0 0 -255z m660 0 l0 -255 -275 0 -275 0 0 255 0 255 275 0 275 0 0
-255z m660 0 l0 -255 -275 0 -275 0 0 255 0 255 275 0 275 0 0 -255z m660 0
l0 -255 -275 0 -275 0 0 255 0 255 275 0 275 0 0 -255z m662 4 c2 -138 1 -253
-1 -255 -2 -2 -127 -4 -278 -4 l-273 0 0 255 0 255 275 0 274 0 3 -251z m666
-1 l-3 -253 -277 -3 -278 -2 0 255 0 255 280 0 280 0 -2 -252z m660 0 l-3
-253 -275 0 -275 0 -3 253 -2 252 280 0 280 0 -2 -252z m660 0 l-3 -253 -275
0 -275 0 -3 253 -2 252 280 0 280 0 -2 -252z m420 0 l-201 -253 -56 0 -56 0
-3 253 -2 252 260 0 260 0 -202 -252z m1562 -3 l0 -255 -245 0 c-135 0 -245 2
-245 5 0 3 92 118 206 255 205 250 205 250 245 250 l39 0 0 -255z m660 0 l0
-255 -275 0 -275 0 0 255 0 255 275 0 275 0 0 -255z m311 21 c37 -127 70 -240
74 -253 l5 -23 -140 0 -140 0 0 255 0 256 66 -3 67 -3 68 -229z m1009 -21 l0
-255 -275 0 -275 0 0 239 c0 132 3 246 6 255 5 14 39 16 275 16 l269 0 0 -255z
m680 0 l0 -255 -285 0 -285 0 0 255 0 255 285 0 285 0 0 -255z m580 0 l0 -255
-235 0 -235 0 0 255 0 255 235 0 235 0 0 -255z m-11170 -610 l0 -255 -235 0
-235 0 0 255 0 255 235 0 235 0 0 -255z m660 0 l0 -255 -275 0 -275 0 0 255 0
255 275 0 275 0 0 -255z m660 0 l0 -255 -275 0 -275 0 0 255 0 255 275 0 275
0 0 -255z m660 0 l0 -255 -275 0 -275 0 0 255 0 255 275 0 275 0 0 -255z m660
0 l0 -255 -275 0 -275 0 0 255 0 255 275 0 275 0 0 -255z m660 0 l0 -255 -275
0 -275 0 0 255 0 255 275 0 275 0 0 -255z m660 0 l0 -255 -275 0 -275 0 0 255
0 255 275 0 275 0 0 -255z m668 3 l-3 -253 -275 0 -275 0 -3 253 -2 252 280 0
280 0 -2 -252z m660 0 l-3 -253 -275 0 -275 0 -3 253 -2 252 280 0 280 0 -2
-252z m662 168 l0 -83 -137 -172 -137 -172 -141 3 -140 3 -3 253 -2 252 280 0
280 0 0 -84z m130 80 c0 -2 -7 -9 -15 -16 -12 -10 -15 -10 -15 4 0 9 7 16 15
16 8 0 15 -2 15 -4z m1850 -251 l0 -255 -275 0 -275 0 0 255 0 255 275 0 275
0 0 -255z m660 0 l0 -255 -275 0 -275 0 0 255 0 255 275 0 275 0 0 -255z m478
63 c30 -103 58 -185 62 -183 4 3 10 19 14 37 3 18 22 102 43 186 54 226 63
212 63 -103 l0 -255 -275 0 -275 0 0 255 0 256 157 -3 157 -3 54 -187z m842
-63 l0 -255 -275 0 -275 0 0 255 0 255 275 0 275 0 0 -255z m680 0 l0 -255
-285 0 -285 0 0 255 0 255 285 0 285 0 0 -255z m580 0 l0 -255 -235 0 -235 0
0 255 0 255 235 0 235 0 0 -255z m-3900 -55 l0 -200 -165 0 c-91 0 -165 2
-165 5 0 7 320 395 325 395 3 0 5 -90 5 -200z m-7270 -555 l0 -255 -235 0
-235 0 0 255 0 255 235 0 235 0 0 -255z m660 0 l0 -255 -275 0 -275 0 0 255 0
255 275 0 275 0 0 -255z m660 0 l0 -255 -275 0 -275 0 0 255 0 255 275 0 275
0 0 -255z m660 0 l0 -255 -275 0 -275 0 0 255 0 255 275 0 275 0 0 -255z m660
0 l0 -255 -275 0 -275 0 0 255 0 255 275 0 275 0 0 -255z m660 8 l-1 -248 -84
202 c-46 111 -89 218 -96 237 -7 20 -16 36 -19 36 -4 0 -82 -83 -175 -185 -92
-102 -169 -185 -171 -185 -2 0 -4 88 -4 195 l0 195 275 0 275 0 0 -247z m660
2 c0 -135 0 -248 0 -252 0 -5 -123 -8 -272 -8 l-273 0 -3 253 -2 252 275 0
275 0 0 -245z m668 -7 l-3 -253 -275 0 -275 0 -3 253 -2 252 280 0 280 0 -2
-252z m662 59 l0 -192 -51 -63 -50 -62 -227 2 -227 3 -3 253 -2 252 280 0 280
0 0 -193z m300 188 c0 -7 -191 -245 -196 -245 -2 0 -4 56 -4 125 l0 125 100 0
c55 0 100 -2 100 -5z m1678 -247 l-3 -253 -273 0 -274 0 2 174 1 174 65 79 66
78 209 0 209 0 -2 -252z m660 0 l-3 -253 -272 -3 -273 -2 0 255 0 255 275 0
275 0 -2 -252z m662 -3 l0 -255 -275 0 -275 0 0 255 0 255 275 0 275 0 0 -255z
m660 0 l0 -255 -275 0 -275 0 0 255 0 255 275 0 275 0 0 -255z m660 0 l0 -255
-275 0 -275 0 0 255 0 255 275 0 275 0 0 -255z m680 0 l0 -255 -285 0 -285 0
0 255 0 255 285 0 285 0 0 -255z m580 0 l0 -255 -235 0 -235 0 0 255 0 255
235 0 235 0 0 -255z m-4564 -242 c-4 -9 -28 -13 -86 -13 -44 0 -80 2 -80 5 0
3 37 50 83 106 l82 100 3 -92 c1 -51 1 -98 -2 -106z m-6606 -368 l0 -255 -235
0 -235 0 0 255 0 255 235 0 235 0 0 -255z m660 0 l0 -255 -272 2 -273 3 -3
253 -2 252 275 0 275 0 0 -255z m660 0 l0 -255 -272 2 -273 3 -3 253 -2 252
275 0 275 0 0 -255z m660 0 l0 -255 -272 2 -273 3 -3 253 -2 252 275 0 275 0
0 -255z m554 233 c-94 -106 -436 -478 -440 -478 -2 0 -4 113 -4 250 l0 250
232 0 231 0 -19 -22z m1429 -230 l-2 -253 -200 -3 c-196 -2 -200 -2 -212 19
-6 12 -40 91 -75 177 -60 146 -64 160 -64 234 l0 78 278 0 277 0 -2 -252z
m665 0 l-3 -253 -275 0 -275 0 -3 253 -2 252 280 0 280 0 -2 -252z m325 54
c-87 -109 -172 -216 -190 -238 l-32 -39 -1 238 0 237 190 0 190 0 -157 -198z
m1655 -54 l-3 -253 -275 0 -275 0 -3 70 -2 70 150 183 151 182 130 0 129 0 -2
-252z m660 0 l-3 -253 -273 0 -273 0 -2 253 -2 252 278 0 277 0 -2 -252z m660
0 l-3 -253 -272 -3 -273 -2 0 255 0 255 275 0 275 0 -2 -252z m660 0 l-3 -253
-272 -3 -273 -2 0 255 0 255 275 0 275 0 -2 -252z m660 0 l-3 -253 -272 -3
-273 -2 0 255 0 255 275 0 275 0 -2 -252z m660 0 l-3 -253 -272 -3 -273 -2 0
255 0 255 275 0 275 0 -2 -252z m682 -3 l0 -255 -285 0 -285 0 0 255 0 255
285 0 285 0 0 -255z m578 3 l-3 -253 -232 -3 -233 -2 0 255 0 255 235 0 235 0
-2 -252z m-6548 -358 c0 -3 -88 -115 -195 -250 l-195 -245 -76 -5 c-42 -3 -78
-3 -80 -1 -5 6 -5 496 0 502 6 6 546 5 546 -1z m1330 -249 c0 -136 -2 -250 -4
-252 -2 -2 -117 -3 -255 -1 l-251 3 203 247 c202 246 204 247 248 252 24 3 47
4 52 2 4 -2 7 -115 7 -251z m658 -4 c-2 -136 -6 -247 -10 -247 -5 0 -129 0
-278 0 l-270 0 0 250 0 250 273 2 c149 2 275 0 280 -3 4 -3 6 -116 5 -252z
m660 0 c-2 -136 -6 -247 -10 -247 -5 0 -127 0 -273 0 l-265 0 0 250 0 250 268
2 c147 2 270 0 275 -3 4 -3 6 -116 5 -252z m-7268 3 l0 -250 -235 0 -235 0 0
250 0 250 235 0 235 0 0 -250z m660 0 l0 -250 -275 0 -275 0 0 250 0 250 275
0 275 0 0 -250z m660 0 l0 -250 -275 0 -275 0 0 250 0 250 275 0 275 0 0 -250z
m660 240 c0 -6 -98 -119 -217 -250 l-218 -239 -57 -1 -58 0 0 250 0 250 275 0
c185 0 275 -3 275 -10z m983 -233 c59 -133 107 -246 107 -250 0 -4 -72 -7
-160 -7 l-160 0 0 196 0 196 46 54 c26 30 49 54 53 54 4 0 55 -109 114 -243z
m997 -7 l0 -250 -79 0 c-54 0 -80 4 -84 13 -2 6 -48 117 -101 245 -53 128 -96
235 -96 238 0 2 81 4 180 4 l180 0 0 -250z m3970 0 l0 -250 -275 0 -275 0 0
250 0 250 275 0 275 0 0 -250z m660 0 l0 -250 -275 0 -275 0 0 250 0 250 275
0 275 0 0 -250z m660 0 l0 -250 -275 0 -275 0 0 250 0 250 275 0 275 0 0 -250z
m660 0 l0 -250 -275 0 -275 0 0 250 0 250 275 0 275 0 0 -250z m680 0 l0 -250
-285 0 -285 0 0 250 0 250 285 0 285 0 0 -250z m580 0 l0 -250 -235 0 -235 0
0 250 0 250 235 0 235 0 0 -250z m-8530 -114 l0 -135 -125 -3 c-69 -2 -124 0
-123 4 4 8 241 268 245 268 2 0 3 -60 3 -134z m-2640 -491 l0 -255 -235 0
-235 0 0 255 0 255 235 0 235 0 0 -255z m660 0 l0 -255 -275 0 -275 0 0 248
c0 137 3 252 7 255 3 4 127 7 275 7 l268 0 0 -255z m660 183 l0 -73 -167 -182
-166 -183 -109 0 -108 0 0 248 c0 137 3 252 7 255 3 4 127 7 275 7 l268 0 0
-72z m1320 -183 l0 -255 -275 0 -275 0 0 143 0 143 86 94 c128 142 100 130
295 130 l169 0 0 -255z m572 51 c75 -170 88 -206 88 -252 l0 -54 -275 0 -275
0 0 248 c0 137 3 252 7 256 4 3 88 5 187 4 l179 -3 89 -199z m748 192 c0 -5 0
-57 0 -118 0 -60 -4 -110 -9 -110 -8 0 -101 212 -101 232 0 5 25 8 55 6 30 -2
55 -6 55 -10z m170 0 c-1 -13 -45 -68 -55 -68 -7 0 -6 65 2 73 11 12 53 7 53
-5z m1818 -245 l2 -253 -280 0 -280 0 0 248 c0 137 3 252 7 255 4 4 128 6 277
5 l271 -3 3 -252z m660 0 l2 -253 -280 0 -280 0 0 248 c0 137 3 252 7 255 4 4
128 6 277 5 l271 -3 3 -252z m660 0 l2 -253 -277 0 -278 0 2 252 c2 139 3 254
3 256 0 1 123 1 273 0 l272 -3 3 -252z m660 0 l2 -253 -275 0 -275 0 0 255 0
255 273 -2 272 -3 3 -252z m660 0 l2 -253 -275 0 -275 0 0 255 0 255 273 -2
272 -3 3 -252z m660 0 l2 -253 -275 0 -275 0 0 255 0 255 273 -2 272 -3 3
-252z m660 0 l2 -253 -275 0 -275 0 0 255 0 255 273 -2 272 -3 3 -252z m682 2
l0 -255 -285 0 -285 0 0 255 0 255 285 0 285 0 0 -255z m578 -2 l2 -253 -235
0 -235 0 0 255 0 255 233 -2 232 -3 3 -252z m-5878 -48 l0 -205 -175 0 -175 0
168 205 c92 113 170 205 175 205 4 0 7 -92 7 -205z m-3310 -125 l0 -80 -76 0
-76 0 72 80 c40 44 74 80 76 80 2 0 4 -36 4 -80z m-1980 -435 l0 -255 -235 0
-235 0 0 255 0 255 235 0 235 0 0 -255z m660 126 l0 -128 -116 -127 -116 -126
-159 0 -159 0 0 255 0 255 275 0 275 0 0 -129z m220 122 c0 -5 -25 -35 -55
-68 l-54 -60 -1 68 0 67 55 0 c30 0 55 -3 55 -7z m1100 -248 l0 -255 -275 0
-275 0 0 89 0 89 152 166 152 166 123 0 123 0 0 -255z m660 0 l0 -255 -275 0
-275 0 0 255 0 255 275 0 275 0 0 -255z m660 0 l0 -255 -275 0 -275 0 0 248
c0 137 3 252 7 255 3 4 127 7 275 7 l268 0 0 -255z m1988 -2 l2 -253 -280 0
-280 0 0 178 0 177 66 78 65 77 212 -2 212 -3 3 -252z m660 0 l2 -253 -280 0
-280 0 0 248 c0 137 3 252 7 255 4 4 128 6 277 5 l271 -3 3 -252z m660 0 l2
-253 -280 0 -280 0 0 248 c0 137 3 252 7 255 4 4 128 6 277 5 l271 -3 3 -252z
m660 0 l2 -253 -274 0 -275 0 -3 251 c-2 138 -1 253 1 255 3 2 126 3 275 2
l271 -3 3 -252z m660 0 l2 -253 -275 0 -275 0 0 255 0 255 273 -2 272 -3 3
-252z m662 2 l0 -255 -275 0 -275 0 0 255 0 255 275 0 275 0 0 -255z m660 0
l0 -255 -275 0 -275 0 0 255 0 255 275 0 275 0 0 -255z m660 0 l0 -255 -275 0
-275 0 0 255 0 255 275 0 275 0 0 -255z m680 0 l0 -255 -285 0 -285 0 0 255 0
255 285 0 285 0 0 -255z m580 0 l0 -255 -235 0 -235 0 0 255 0 255 235 0 235
0 0 -255z m-7655 -26 c52 -117 95 -217 95 -221 0 -5 -45 -8 -100 -8 l-100 0 0
227 c0 124 2 224 5 221 3 -3 48 -101 100 -219z m1115 -119 l0 -110 -95 0 -96
0 91 110 c51 61 93 110 96 110 2 0 4 -49 4 -110z m-3310 -85 c0 -20 -5 -25
-27 -25 l-26 0 23 25 c13 14 25 25 27 25 2 0 3 -11 3 -25z m-1320 -312 l-1
-188 -64 -67 -65 -68 -170 0 -170 0 0 255 0 255 235 0 235 0 0 -187z m311 160
c-11 -16 -61 -71 -110 -123 l-90 -95 -1 123 0 122 111 0 110 0 -20 -27z m1009
-228 l0 -255 -275 0 -275 0 0 35 c0 31 21 57 202 255 l202 220 73 0 73 0 0
-255z m660 0 l0 -255 -275 0 -275 0 0 255 0 255 275 0 275 0 0 -255z m660 0
l0 -255 -275 0 -275 0 0 255 0 255 275 0 275 0 0 -255z m660 0 l0 -255 -275 0
-275 0 0 255 0 255 275 0 275 0 0 -255z m472 5 c59 -135 108 -248 108 -252 0
-5 -106 -8 -235 -8 l-235 0 0 255 0 256 127 -3 127 -3 108 -245z m856 -7 l2
-253 -280 0 -280 0 0 79 0 80 97 118 c53 65 119 144 146 176 l49 58 132 -3
131 -3 3 -252z m660 0 l2 -253 -280 0 -280 0 0 248 c0 137 3 252 7 255 4 4
128 6 277 5 l271 -3 3 -252z m660 0 l2 -253 -280 0 -280 0 0 248 c0 137 3 252
7 255 4 4 128 6 277 5 l271 -3 3 -252z m660 0 l2 -253 -280 0 -280 0 0 248 c0
137 3 252 7 255 4 4 128 6 277 5 l271 -3 3 -252z m662 2 l0 -255 -275 0 -275
0 0 255 0 255 275 0 275 0 0 -255z m660 0 l0 -255 -275 0 -275 0 0 255 0 255
275 0 275 0 0 -255z m660 0 l0 -255 -275 0 -275 0 0 255 0 255 275 0 275 0 0
-255z m660 0 l0 -255 -275 0 -275 0 0 255 0 255 275 0 275 0 0 -255z m660 0
l0 -255 -275 0 -275 0 0 255 0 255 275 0 275 0 0 -255z m680 0 l0 -255 -285 0
-285 0 0 255 0 255 285 0 285 0 0 -255z m580 0 l0 -255 -235 0 -235 0 0 255 0
255 235 0 235 0 0 -255z m-7205 -245 c-3 -5 -11 -10 -16 -10 -6 0 -7 5 -4 10
3 6 11 10 16 10 6 0 7 -4 4 -10z m-4195 -116 c0 -4 -39 -49 -87 -102 -49 -52
-102 -111 -120 -131 l-32 -36 -1 138 0 137 120 0 c66 0 120 -3 120 -6z m890
-249 l0 -255 -256 0 -256 0 38 43 c271 302 430 467 451 467 l23 0 0 -255z
m660 0 l0 -255 -275 0 -275 0 0 255 0 255 275 0 275 0 0 -255z m660 0 l0 -255
-275 0 -275 0 0 255 0 255 275 0 275 0 0 -255z m660 0 l0 -255 -275 0 -275 0
0 255 0 255 275 0 275 0 0 -255z m660 0 l0 -255 -275 0 -275 0 0 255 0 255
275 0 275 0 0 -255z m661 251 c2 -2 3 -117 1 -255 l-3 -251 -274 0 -275 0 0
255 0 255 273 0 c151 0 276 -2 278 -4z m667 -253 l2 -253 -280 0 -280 0 0 255
0 255 278 -2 277 -3 3 -252z m660 0 l2 -253 -280 0 -280 0 0 248 c0 137 3 252
7 255 4 4 128 6 277 5 l271 -3 3 -252z m660 0 l2 -253 -280 0 -280 0 0 248 c0
137 3 252 7 255 4 4 128 6 277 5 l271 -3 3 -252z m662 2 l0 -255 -280 0 -280
0 0 248 c0 137 3 252 7 255 3 4 129 7 280 7 l273 0 0 -255z m660 0 l0 -255
-275 0 -274 0 -3 251 c-2 138 -1 253 1 255 2 2 127 4 278 4 l273 0 0 -255z
m660 0 l0 -255 -275 0 -275 0 0 255 0 255 275 0 275 0 0 -255z m660 0 l0 -255
-275 0 -275 0 0 255 0 255 275 0 275 0 0 -255z m660 0 l0 -255 -275 0 -275 0
0 255 0 255 275 0 275 0 0 -255z m660 0 l0 -255 -275 0 -275 0 0 255 0 255
275 0 275 0 0 -255z m680 0 l0 -255 -285 0 -285 0 0 255 0 255 285 0 285 0 0
-255z m580 0 l0 -255 -235 0 -235 0 0 255 0 255 235 0 235 0 0 -255z m-10510
-490 l0 -135 -275 0 -275 0 0 135 0 135 275 0 275 0 0 -135z m660 0 l0 -135
-272 2 -273 3 -3 133 -3 132 276 0 275 0 0 -135z m660 0 l0 -135 -272 2 -273
3 -3 133 -3 132 276 0 275 0 0 -135z m660 0 l0 -135 -272 2 -273 3 -3 133 -3
132 276 0 275 0 0 -135z m660 0 l0 -135 -272 2 -273 3 -3 133 -3 132 276 0
275 0 0 -135z m662 4 c2 -83 -1 -133 -7 -135 -6 -3 -129 -3 -275 -2 l-265 3
-3 133 -3 132 275 0 275 0 3 -131z m663 -4 l0 -130 -275 0 -275 0 -3 133 -3
132 278 -2 278 -3 0 -130z m663 3 l-3 -133 -275 0 -275 0 -3 133 -3 132 281 0
281 0 -3 -132z m660 0 l-3 -133 -275 0 -275 0 -3 133 -3 132 281 0 281 0 -3
-132z m660 0 l-3 -133 -275 0 -275 0 -3 119 c-1 66 0 126 2 133 4 10 63 13
281 13 l276 0 -3 -132z m660 0 l-3 -133 -265 -3 c-146 -1 -269 -1 -275 2 -6 2
-9 52 -7 135 l3 131 275 0 275 0 -3 -132z m660 0 l-3 -133 -272 -3 -273 -2 0
135 0 135 275 0 276 0 -3 -132z m660 0 l-3 -133 -272 -3 -273 -2 0 135 0 135
275 0 276 0 -3 -132z m660 0 l-3 -133 -272 -3 -273 -2 0 135 0 135 275 0 276
0 -3 -132z m660 0 l-3 -133 -272 -3 -273 -2 0 135 0 135 275 0 276 0 -3 -132z
m682 -3 l0 -135 -285 0 -285 0 0 135 0 135 285 0 285 0 0 -135z m578 3 l-3
-133 -232 -3 -233 -2 0 135 0 135 235 0 236 0 -3 -132z m-11168 -33 l0 -105
-91 0 c-54 0 -89 4 -87 10 3 9 170 199 176 200 1 0 2 -47 2 -105z"/>
</g>
</svg>
