<svg xmlns="http://www.w3.org/2000/svg" width="32" height="32" viewBox="0 0 32 32">
    <g fill="none" fill-rule="evenodd">
        <g fill="#0a3370">
            <g>
                <g>
                    <path d="M-.707-.707c.36-.36.928-.388 1.32-.083l.094.083L14 12.585 27.293-.707c.36-.36.928-.388 1.32-.083l.094.083c.36.36.388.928.083 1.32l-.083.094-14 14c-.36.36-.928.388-1.32.083l-.094-.083-14-14c-.39-.39-.39-1.024 0-1.414z" transform="translate(-161 -6360) matrix(0 -1 -1 0 193 6392) translate(2 9)"/>
                </g>
            </g>
        </g>
    </g>
</svg>
