<svg width="63" height="52" viewBox="0 0 63 52" fill="none" xmlns="http://www.w3.org/2000/svg">
<rect width="63" height="52" rx="4" fill="white"/>
<path fill-rule="evenodd" clip-rule="evenodd" d="M59.2941 0H3.70588C1.65918 0 0 1.66294 0 3.71429V48.2857C0 50.3371 1.65918 52 3.70588 52H59.2941C61.3408 52 63 50.3371 63 48.2857V3.71429C63 1.66294 61.3408 0 59.2941 0ZM3.70588 48.2857V3.71429H59.2941V48.2857H3.70588Z" fill="#C2D1D9"/>
<path fill-rule="evenodd" clip-rule="evenodd" d="M10.1914 15.3212C10.1914 19.1675 13.3024 22.2855 17.1399 22.2855C20.9775 22.2855 24.0885 19.1675 24.0885 15.3212C24.0885 11.475 20.9775 8.35693 17.1399 8.35693C13.3024 8.35693 10.1914 11.475 10.1914 15.3212ZM20.3826 15.3212C20.3826 17.1161 18.9308 18.5712 17.1399 18.5712C15.3491 18.5712 13.8973 17.1161 13.8973 15.3212C13.8973 13.5263 15.3491 12.0712 17.1399 12.0712C18.9308 12.0712 20.3826 13.5263 20.3826 15.3212Z" fill="#C2D1D9"/>
<path d="M13.3489 44.0331C12.6222 44.7552 11.449 44.7501 10.7285 44.0217C10.008 43.2934 10.0131 42.1175 10.7398 41.3954L25.9796 26.2524L34.5692 33.7406C35.3414 34.4137 35.4229 35.5868 34.7512 36.3607C34.0796 37.1346 32.9093 37.2162 32.1371 36.5431L26.1445 31.3189L13.3489 44.0331Z" fill="#C2D1D9"/>
<path d="M27.2511 44.0275C26.5275 44.7528 25.3543 44.7528 24.6307 44.0276C23.907 43.3024 23.907 42.1265 24.6305 41.4012L49.0177 16.9565L62.3688 28.6978C63.138 29.3742 63.2145 30.5476 62.5395 31.3186C61.8646 32.0896 60.6939 32.1662 59.9246 31.4897L49.1833 22.0436L27.2511 44.0275Z" fill="#C2D1D9"/>
</svg>
