<svg xmlns="http://www.w3.org/2000/svg" xmlns:xlink="http://www.w3.org/1999/xlink" width="24" height="24" viewBox="0 0 24 24">
    <defs>
        <path id="y9vxmtxzza" d="M15.523 23.257h-.022L1.376 23.25C.527 23.25 0 22.68 0 21.762v-3.917c.082-3.864 1.893-6.658 5.383-8.312-.78-1.012-1.235-2.093-1.317-3.14-.135-1.733.405-3.361 1.521-4.584C6.634.663 8.058.02 9.6 0L9.698 0c3.295 0 5.586 2.132 5.847 5.455.111 1.409-.37 2.867-1.36 4.132 3.265 1.761 4.979 4.535 5.097 8.247l-.015.444c0 .463-.386.724-.75.73h-.012c-.36 0-.748-.247-.766-.794l.007-.58c-.096-3.102-2.032-5.881-4.819-6.907l-.077-.032c-.156-.072-.404-.235-.519-.576-.206-.612.224-1.04.48-1.18.781-.685 1.219-1.904 1.167-3.323-.092-2.468-1.752-4.062-4.23-4.062h-.006c-1.145.001-2.204.465-2.98 1.307-.828.896-1.228 2.09-1.128 3.363.088 1.13.478 2.07 1.099 2.646.254.136.75.622.533 1.294-.127.394-.607.589-.764.654-3.092 1.274-4.666 3.475-4.833 6.738l.003 4.076c.257.002.737.003 1.285.003.5.001 12.266.01 12.553.012.381.003.652.09.826.267.136.139.204.323.2.546-.002.207-.078.388-.218.522-.268.258-.684.275-.795.275"/>
    </defs>
    <g fill="none" fill-rule="evenodd">
        <g>
            <g>
                <g>
                    <g transform="translate(-433 -4892) translate(415 4879) translate(18 13) translate(2.4)">
                        <mask id="823nux0jeb" fill="#fff">
                            <use xlink:href="#y9vxmtxzza"/>
                        </mask>
                        <use fill="#000" xlink:href="#y9vxmtxzza"/>
                        <g fill="#0a3370" mask="url(#823nux0jeb)">
                            <path d="M0 0H24V24H0z" transform="translate(-2.4)"/>
                        </g>
                    </g>
                </g>
            </g>
        </g>
    </g>
</svg>
