<svg xmlns="http://www.w3.org/2000/svg" xmlns:xlink="http://www.w3.org/1999/xlink" width="24" height="24" viewBox="0 0 24 24">
    <defs>
        <path id="94yhbp67pa" d="M10.653 14.584c-2.217 0-4.015-1.76-4.015-3.932 0-2.172 1.798-3.932 4.015-3.932 2.217 0 4.015 1.76 4.015 3.932 0 2.171-1.798 3.932-4.015 3.932m10.439-.717c.078-.233.13-.428.157-.59.244-1.02.358-2.11.372-3.247C21.69 4.304 17 0 11.303 0 5.605 0 0 3.748 0 10.705c0 5.409 4.035 10.474 9.932 10.917 0 0 .784-.053.824-.79.047-.861-.824-.92-.824-.92-4.786-.447-8.242-4.682-8.184-9.05.085-6.4 4.835-9.084 9.602-9.084 4.766 0 8.6 3.705 8.645 8.407.012 1.293-.107 2.536-.526 3.662-.064.172-.134.348-.209.522l-.053.087c-.191.39-.365.821-.924 1.277-.467.381-1.852.737-1.827-.698v-8.07c0-.465-.389-.846-.863-.846h-.062c-.36 0-.669.219-.798.527-1.045-1.021-2.487-1.652-4.08-1.652-3.19 0-5.778 2.533-5.778 5.658 0 3.125 2.587 5.658 5.778 5.658 1.574 0 3-.618 4.042-1.619l.001.333c0 .012.003.023.004.035h-.003s-.012.348.038.628c.406 2.263 3.417 2.495 4.84 1.161l.002.003.01-.014c.126-.12.241-.251.34-.396.436-.645.662-1.144.896-1.794.091-.233.173-.471.246-.714l.023-.066"/>
    </defs>
    <g fill="none" fill-rule="evenodd">
        <g>
            <g>
                <g>
                    <g transform="translate(-433 -4972) translate(415 4959) translate(18 13) translate(.8 .8)">
                        <mask id="cnlhsn8j1b" fill="#fff">
                            <use xlink:href="#94yhbp67pa"/>
                        </mask>
                        <use fill="#0a3370" xlink:href="#94yhbp67pa"/>
                        <g fill="#0a3370" mask="url(#cnlhsn8j1b)">
                            <path d="M0 0H36.036V36.036H0z" transform="translate(-7.207 -7.207)"/>
                        </g>
                    </g>
                </g>
            </g>
        </g>
    </g>
</svg>
