<?xml version="1.0" standalone="no"?>
<!DOCTYPE svg PUBLIC "-//W3C//DTD SVG 20010904//EN"
 "http://www.w3.org/TR/2001/REC-SVG-20010904/DTD/svg10.dtd">
<svg version="1.0" xmlns="http://www.w3.org/2000/svg"
 width="1280.000000pt" height="1211.000000pt" viewBox="0 0 1280.000000 1211.000000"
 preserveAspectRatio="xMidYMid meet">
<metadata>
Created by potrace 1.15, written by Peter Selinger 2001-2017
</metadata>
<g transform="translate(0.000000,1211.000000) scale(0.100000,-0.100000)"
fill="pink" stroke="none">
<path d="M7654 12100 c-27 -11 -78 -61 -178 -175 -76 -88 -223 -227 -258 -246
-12 -6 -25 -6 -37 1 -28 14 -67 13 -100 -5 -69 -35 -301 -325 -430 -536 -38
-63 -85 -140 -105 -172 -39 -63 -44 -82 -22 -90 19 -8 22 -4 65 89 47 99 118
213 229 364 152 207 247 300 305 300 87 0 251 -226 359 -493 27 -65 68 -185
93 -265 48 -158 103 -285 120 -279 6 2 10 33 9 73 -2 189 -207 656 -399 910
-21 29 152 241 308 375 80 70 109 74 178 31 85 -54 184 -185 291 -382 77 -141
138 -180 138 -87 0 51 -29 102 -153 276 -97 135 -205 253 -266 293 -46 29
-103 36 -147 18z"/>
<path d="M5872 11969 c-51 -15 -119 -90 -156 -172 -18 -40 -72 -182 -121 -317
-49 -135 -90 -247 -92 -249 -2 -3 -47 38 -101 91 -69 68 -128 115 -204 162
-195 119 -245 136 -272 94 -18 -30 3 -50 111 -103 148 -74 215 -128 355 -287
l68 -76 -59 -144 c-32 -78 -84 -199 -116 -267 -40 -87 -55 -132 -52 -150 5
-23 -1 -30 -56 -60 -77 -43 -166 -131 -195 -193 -47 -101 -102 -336 -102 -434
0 -24 -3 -44 -7 -44 -5 0 -21 19 -38 41 -45 62 -138 143 -207 179 -126 67
-224 23 -244 -109 -4 -25 1 -144 10 -265 12 -153 16 -300 14 -476 l-3 -255
-33 70 c-119 249 -230 520 -218 532 2 2 16 -28 32 -68 25 -64 46 -91 60 -76 3
2 -27 78 -66 168 -67 156 -72 172 -106 364 -81 456 -92 559 -75 761 12 151 26
229 44 252 44 56 322 -99 531 -298 88 -84 157 -166 266 -317 67 -94 100 -124
100 -90 0 24 -227 314 -315 402 -50 50 -149 135 -222 190 -115 86 -130 101
-119 115 8 8 22 44 32 79 11 41 48 116 101 203 46 76 83 143 83 148 0 38 -51
-27 -141 -180 -24 -41 -70 -102 -101 -136 -32 -34 -58 -66 -58 -71 0 -6 -23 1
-51 14 -74 36 -116 33 -155 -9 -59 -65 -64 -200 -23 -613 9 -89 72 -479 86
-530 3 -11 -14 9 -37 44 -187 287 -538 664 -825 889 -22 17 -26 25 -16 31 8 5
20 61 31 147 33 246 57 311 126 340 103 43 232 -29 425 -237 95 -101 129 -127
129 -97 0 48 -218 264 -342 340 -132 81 -258 102 -316 53 -41 -35 -71 -112
-83 -213 -14 -126 -37 -283 -41 -287 -2 -2 -30 9 -62 25 -64 33 -110 37 -159
16 -59 -25 -85 -65 -123 -187 l-36 -114 12 -130 c17 -191 77 -576 107 -685 14
-52 47 -156 74 -230 26 -74 76 -220 110 -325 77 -238 128 -358 235 -557 47
-87 107 -204 133 -260 27 -57 71 -149 99 -205 28 -57 48 -103 44 -103 -32 0
-367 126 -516 194 -92 42 -154 48 -186 16 -26 -26 -26 -85 -1 -126 22 -35 106
-224 151 -339 111 -280 366 -666 685 -1035 273 -316 504 -499 850 -675 143
-72 192 -93 510 -211 99 -36 183 -69 188 -73 4 -4 -106 -18 -245 -30 -1308
-116 -2206 -39 -3130 269 -277 92 -476 183 -783 358 -200 113 -308 185 -546
363 -211 160 -262 211 -273 280 -4 23 -5 43 -4 45 2 1 46 11 98 21 129 25 540
24 790 0 369 -37 581 -80 1045 -214 182 -52 404 -113 495 -134 91 -22 211 -54
268 -71 95 -29 130 -32 106 -8 -22 22 -371 162 -522 209 -507 160 -767 232
-934 260 -183 31 -675 88 -903 106 -232 17 -548 20 -593 4 -45 -15 -85 -79
-90 -143 -5 -66 28 -201 64 -264 85 -144 250 -254 764 -506 324 -159 509 -235
840 -347 729 -247 1191 -340 1960 -395 346 -25 1479 -31 1700 -10 91 9 176 18
190 21 14 3 -15 -9 -65 -28 -305 -115 -716 -341 -849 -466 -67 -65 -171 -216
-215 -314 -48 -107 -118 -336 -150 -490 -31 -149 -85 -440 -146 -787 -76 -434
-153 -714 -252 -930 -25 -52 -59 -133 -77 -180 -18 -47 -52 -121 -75 -166 -54
-102 -58 -162 -14 -204 41 -39 104 -61 143 -50 49 14 228 115 302 171 37 27
125 105 195 172 254 241 335 305 628 490 161 101 284 206 464 395 355 373 501
576 729 1012 130 249 185 412 198 590 6 84 6 86 -46 225 -74 197 -98 209 -125
57 -14 -81 -25 -113 -51 -142 -7 -9 -31 -65 -53 -125 -153 -425 -286 -723
-400 -895 -141 -213 -401 -492 -581 -623 -58 -42 -175 -124 -260 -183 -306
-210 -472 -343 -654 -522 -65 -64 -116 -108 -112 -97 22 59 70 224 96 325 37
150 50 222 100 540 117 752 135 843 205 1075 107 353 259 531 589 695 103 51
302 111 543 165 94 21 136 26 224 23 107 -3 108 -3 138 26 35 34 51 80 51 146
-1 86 -37 151 -97 176 -22 10 -35 23 -38 42 -4 15 -10 35 -16 45 -12 23 -10
22 68 -13 36 -16 70 -30 74 -30 14 0 10 27 -5 33 -36 14 -335 290 -407 375
-162 195 -327 496 -425 776 -71 205 -122 439 -139 646 -9 106 11 360 34 453
40 154 141 327 191 327 10 0 25 -9 35 -20 10 -11 25 -20 33 -20 24 0 227 -127
351 -220 64 -47 177 -138 251 -201 287 -243 394 -375 535 -664 120 -246 175
-416 175 -540 0 -130 -86 -369 -173 -482 -68 -89 -87 -125 -87 -165 0 -75 87
-90 151 -26 39 40 165 207 205 273 47 76 81 171 100 274 35 192 -12 362 -203
736 -138 270 -319 489 -675 816 l-208 190 14 27 c31 60 108 153 158 190 76 58
146 75 277 70 157 -7 214 -32 345 -150 l58 -53 -99 -142 c-55 -78 -114 -158
-130 -180 -44 -56 -75 -121 -71 -151 4 -38 52 -61 87 -41 20 11 30 30 44 84
23 90 56 158 159 325 104 169 179 269 286 381 158 167 287 205 443 132 80 -37
254 -185 305 -259 35 -51 74 -76 60 -37 -19 50 -152 246 -191 282 -61 56 -160
119 -208 132 -137 37 -288 -25 -415 -169 -51 -58 -87 -104 -208 -268 l-22 -29
-38 36 c-41 38 -137 105 -189 131 -78 40 -258 59 -363 39 -23 -5 -44 -6 -46
-2 -2 3 0 94 5 201 6 107 7 205 4 217 -8 35 -47 56 -79 43 -15 -5 -29 -17 -33
-27 -8 -22 23 -250 47 -344 26 -98 26 -101 -16 -124 -52 -28 -156 -145 -190
-212 -16 -32 -30 -60 -31 -62 -2 -2 -44 28 -95 67 -111 85 -193 124 -268 130
l-55 4 -73 -68 c-61 -56 -82 -84 -121 -163 -66 -131 -96 -223 -121 -376 -19
-111 -21 -156 -17 -310 4 -165 8 -198 50 -397 64 -307 133 -501 284 -802 57
-114 142 -245 206 -318 47 -54 217 -208 279 -253 15 -11 28 -23 28 -27 1 -22
-318 5 -517 43 -327 62 -517 126 -768 259 -328 172 -547 350 -814 660 -417
484 -586 797 -674 1250 -8 41 -13 77 -11 79 2 2 39 -6 81 -18 43 -11 137 -35
208 -52 237 -57 455 -142 629 -246 260 -156 407 -260 635 -452 62 -53 152
-127 200 -166 47 -38 120 -102 161 -142 67 -65 100 -87 100 -65 -1 20 -256
311 -326 370 -234 198 -608 443 -900 591 -77 39 -132 70 -123 71 25 0 49 34
49 68 0 18 -27 98 -59 179 -96 241 -114 310 -176 677 -33 200 -63 491 -51 503
10 10 148 -109 210 -183 145 -172 312 -411 436 -624 134 -231 172 -321 255
-600 38 -131 111 -328 126 -344 39 -42 2 174 -66 380 -104 316 -161 429 -389
778 -186 283 -354 503 -505 659 -75 78 -102 92 -139 73 -34 -17 -47 -33 -55
-64 -6 -26 67 -469 113 -681 17 -80 46 -235 66 -345 19 -110 38 -205 41 -210
3 -6 -1 -4 -10 4 -31 30 -153 239 -247 425 -106 209 -162 365 -255 707 -111
408 -125 498 -132 845 -6 274 -5 285 17 352 34 106 35 107 106 86 77 -22 186
-81 282 -152 110 -81 503 -478 589 -593 112 -152 210 -325 228 -406 19 -85 33
-128 100 -319 29 -82 70 -211 91 -285 46 -162 70 -194 112 -152 11 11 32 22
49 25 l30 6 -15 -72 c-19 -91 -20 -308 -3 -447 13 -107 75 -411 137 -668 19
-78 34 -158 34 -177 0 -43 29 -75 69 -75 33 0 81 34 81 58 0 9 -35 91 -79 182
-43 91 -91 201 -106 244 -37 111 -93 379 -106 511 -20 198 4 419 66 600 73
212 135 207 365 -24 84 -85 163 -176 210 -243 68 -97 100 -128 100 -97 0 11
-84 133 -140 204 -70 89 -306 336 -344 362 -78 51 -164 26 -205 -61 -11 -23
-27 -84 -36 -136 -27 -150 -29 -151 -52 -34 -12 62 -16 176 -20 514 l-4 435
29 35 c26 30 35 35 71 34 68 -2 162 -57 239 -139 37 -40 74 -85 82 -101 8 -16
27 -47 42 -69 32 -49 192 -369 248 -496 35 -79 84 -203 104 -261 6 -19 21 -24
30 -10 15 24 -161 424 -302 689 -44 82 -48 93 -32 98 27 8 30 27 19 97 -12 73
2 235 27 320 28 93 73 174 120 217 63 59 214 131 274 131 70 0 143 -41 230
-129 55 -56 85 -97 112 -153 38 -78 52 -96 62 -79 8 12 -45 139 -86 208 -55
92 -211 223 -264 223 -13 0 -25 4 -28 9 -7 11 10 158 29 243 21 92 67 218 180
485 115 271 216 470 261 514 l32 31 33 -17 c97 -50 312 -256 391 -375 48 -73
124 -224 181 -362 17 -40 37 -51 37 -20 0 9 -26 76 -59 147 -133 299 -357 634
-480 719 -32 23 -95 48 -111 45 -3 0 -20 -5 -38 -10z m-243 -6275 c-51 -19
-69 -16 -29 5 19 10 41 16 49 13 10 -4 3 -10 -20 -18z"/>
<path d="M8434 11748 c-59 -40 -111 -114 -304 -433 -76 -126 -168 -272 -204
-323 -65 -94 -72 -122 -32 -122 17 0 30 16 60 78 58 117 331 567 395 650 67
87 133 127 181 110 63 -21 173 -178 210 -296 55 -178 88 -427 91 -680 l1 -194
-36 -30 c-40 -33 -45 -52 -17 -68 31 -16 34 -13 66 47 35 67 189 225 254 261
l42 24 -6 -25 c-4 -13 5 -82 18 -153 34 -175 41 -306 27 -514 -25 -382 -64
-546 -234 -991 -44 -116 -58 -166 -65 -237 -5 -49 -15 -109 -22 -131 -9 -31
-9 -45 -1 -53 8 -8 17 1 32 37 12 27 41 77 66 111 53 75 69 111 141 314 140
395 184 558 213 790 27 217 34 411 21 575 -12 153 -20 192 -58 277 -21 48 -33
61 -68 78 -77 37 -115 14 -241 -152 -41 -53 -78 -99 -82 -102 -5 -3 -12 79
-15 182 -11 312 -80 666 -160 827 -29 58 -101 140 -141 159 -50 23 -78 20
-132 -16z"/>
<path d="M10688 10746 c-75 -20 -118 -56 -198 -166 -41 -57 -115 -157 -165
-224 -150 -203 -186 -259 -175 -270 12 -12 7 -17 102 114 123 170 226 258 372
319 87 36 84 36 114 13 37 -29 55 -125 48 -258 -14 -234 -67 -500 -181 -899
-139 -487 -249 -713 -580 -1195 -147 -213 -289 -403 -455 -610 -64 -80 -163
-210 -220 -290 -147 -207 -179 -247 -288 -364 -95 -102 -142 -172 -142 -213 0
-30 34 -56 62 -47 51 16 94 64 203 228 62 94 160 230 216 301 325 414 616 825
747 1055 65 116 279 515 335 625 110 220 192 446 277 765 39 146 84 311 101
367 56 192 91 358 96 454 5 88 4 101 -19 151 -57 123 -142 172 -250 144z"/>
<path d="M7755 10604 c-69 -47 -310 -289 -469 -469 -149 -168 -255 -302 -342
-429 -60 -87 -74 -100 -74 -68 -1 76 -216 571 -313 718 -104 157 -195 231
-314 253 -79 15 -135 -5 -214 -78 -100 -91 -146 -196 -220 -496 -38 -159 -91
-504 -81 -533 3 -7 16 -12 31 -10 l26 3 2 120 c2 201 35 378 107 580 45 126
93 209 158 272 107 105 185 99 317 -23 111 -102 220 -294 369 -644 69 -162
100 -247 100 -273 0 -30 7 -46 31 -69 l30 -30 37 29 c29 21 51 56 94 148 132
279 381 580 652 789 64 48 130 97 147 108 l31 20 16 -38 c39 -94 55 -190 66
-412 12 -218 18 -257 36 -237 11 13 -3 304 -23 485 -35 308 -78 369 -200 284z"/>
<path d="M8309 10081 c-52 -43 -94 -130 -129 -269 -26 -104 -30 -136 -28 -224
3 -102 3 -103 28 -103 23 0 25 5 46 115 40 210 64 282 121 358 13 17 28 32 32
32 5 0 28 -19 51 -41 46 -45 101 -152 145 -284 27 -82 39 -104 51 -92 10 10
-7 65 -89 282 -54 143 -79 198 -103 223 -41 41 -77 42 -125 3z"/>
<path d="M7852 9713 c-5 -10 -12 -30 -15 -44 -7 -27 -47 -436 -47 -476 0 -22
-2 -21 -52 15 -51 36 -55 37 -137 37 -58 0 -85 -4 -88 -12 -3 -8 5 -13 22 -13
15 0 55 -15 88 -32 45 -25 68 -45 90 -80 18 -29 37 -48 48 -48 17 0 19 -10 19
-110 0 -91 3 -110 15 -110 13 0 15 20 15 123 0 309 45 582 109 663 26 33 27
58 1 84 -25 25 -56 26 -68 3z"/>
<path d="M7992 9669 c-13 -5 -22 -12 -20 -16 3 -5 13 -27 23 -51 10 -23 23
-41 29 -39 14 5 15 109 1 113 -5 1 -21 -2 -33 -7z"/>
<path d="M9592 9646 c-23 -21 -67 -88 -112 -168 -95 -173 -238 -398 -470 -738
-103 -151 -222 -327 -265 -390 -42 -63 -75 -104 -72 -90 23 101 32 231 32 445
-1 204 -4 258 -23 360 -46 256 -90 374 -162 438 -110 100 -189 82 -329 -75
-107 -119 -162 -209 -314 -514 -313 -626 -429 -913 -598 -1472 -158 -527 -209
-787 -209 -1071 0 -161 7 -211 28 -211 12 0 14 14 9 83 -8 125 32 451 90 737
65 323 196 756 333 1100 145 363 342 769 465 959 92 142 231 282 313 317 39
16 36 18 91 -66 32 -49 91 -238 116 -377 22 -117 30 -390 16 -535 -6 -64 -27
-205 -46 -312 -27 -152 -40 -205 -60 -236 -27 -42 -31 -60 -15 -60 18 0 11
-35 -54 -262 -162 -567 -336 -928 -558 -1159 -107 -112 -176 -148 -352 -186
-55 -11 -82 -50 -79 -113 l2 -49 -97 -21 c-153 -33 -260 -68 -354 -115 -96
-48 -185 -69 -425 -100 -81 -11 -137 -23 -144 -31 -19 -23 -3 -44 36 -44 46 0
373 48 387 56 6 4 81 10 167 15 118 5 179 14 251 33 52 14 194 49 315 77 121
28 342 81 490 119 149 37 291 71 318 75 44 6 47 5 47 -17 0 -29 -71 -152 -113
-197 -99 -103 -259 -214 -421 -291 -214 -102 -322 -128 -566 -136 -94 -4 -210
-2 -270 4 -129 14 -418 70 -577 113 -135 36 -189 35 -229 -2 -34 -32 -26 -73
22 -116 46 -41 83 -53 292 -94 94 -18 172 -36 172 -39 0 -3 -46 -21 -102 -39
-116 -38 -154 -67 -143 -109 13 -53 23 -57 189 -60 l154 -3 -10 -42 c-6 -23
-28 -78 -49 -122 -30 -60 -42 -101 -51 -165 -10 -79 -31 -179 -80 -390 -20
-82 -20 -98 -9 -495 27 -953 24 -1729 -9 -2575 -33 -837 -33 -827 -7 -1058 33
-289 54 -308 88 -81 11 74 24 161 29 194 6 33 17 353 24 710 22 962 32 1202
86 1975 22 308 66 731 105 1010 14 97 25 221 25 280 0 160 -43 537 -68 592
l-20 46 34 67 c43 86 43 100 -1 115 -28 9 -54 8 -127 -4 -104 -18 -147 -20
-132 -7 18 18 119 41 180 41 54 0 65 3 78 22 9 12 16 35 16 50 0 24 3 26 33
22 17 -2 110 -11 206 -19 l173 -14 87 -74 c47 -40 127 -123 176 -184 336 -410
564 -678 631 -743 201 -193 351 -281 581 -342 81 -21 108 -23 333 -23 300 0
482 19 820 86 403 79 633 148 1482 443 152 52 370 123 485 157 211 62 303 101
344 145 20 21 57 136 59 181 0 17 -160 75 -188 68 l-23 -6 17 33 c25 48 23
141 -5 203 -24 55 -80 117 -153 171 -153 113 -974 484 -1447 654 -362 129
-509 170 -681 190 -58 7 -111 15 -117 19 -15 8 60 36 522 201 600 214 856 318
1519 618 318 144 627 331 831 505 108 92 141 132 201 247 33 63 39 84 39 136
0 33 -6 72 -13 85 -23 43 -76 71 -157 82 -68 10 -110 7 -457 -37 -718 -90
-903 -115 -1251 -172 -342 -56 -380 -66 -351 -94 5 -4 128 12 274 36 307 51
766 118 925 134 168 17 467 26 595 18 135 -9 250 -39 250 -66 0 -58 -205 -275
-391 -414 -274 -204 -654 -456 -829 -551 -231 -125 -810 -355 -1255 -500 -428
-139 -607 -168 -1207 -194 -96 -4 -109 -7 -123 -26 -19 -28 -19 -96 1 -125 14
-21 21 -22 124 -19 102 2 110 1 133 -22 23 -20 31 -22 74 -16 26 5 129 8 228
8 209 0 288 -11 539 -79 257 -70 357 -106 711 -258 180 -77 539 -258 624 -314
118 -79 312 -232 390 -309 40 -40 74 -73 76 -73 1 0 -1 19 -5 42 -9 46 -4 68
14 68 23 0 35 -23 57 -106 l22 -83 56 -16 c31 -9 63 -18 71 -21 32 -11 -636
-344 -915 -456 -597 -240 -1194 -353 -1775 -335 -217 7 -334 24 -481 73 -141
47 -223 90 -374 198 -109 77 -154 119 -342 319 -230 243 -304 312 -432 402
-43 30 -96 74 -117 98 l-38 42 49 8 c115 18 218 60 494 202 157 80 410 245
462 301 123 133 153 201 154 344 0 86 -3 100 -27 141 -34 57 -86 83 -151 73
l-42 -7 21 24 c350 390 415 470 611 754 217 312 302 477 393 757 33 100 60
191 60 201 0 42 -26 5 -55 -79 -44 -124 -105 -242 -266 -509 -255 -425 -387
-603 -629 -846 -165 -166 -268 -251 -368 -305 -50 -26 -82 -64 -82 -97 0 -11
-110 -52 -248 -92 -19 -6 -11 8 38 66 157 188 305 474 465 905 80 213 286 890
310 1014 9 49 43 103 345 550 147 217 327 489 400 604 134 210 234 336 253
317 5 -5 12 -69 14 -143 4 -101 1 -149 -11 -201 -20 -87 -20 -110 2 -137 23
-28 54 -21 72 18 14 29 27 155 36 352 6 116 5 129 -15 168 -37 72 -81 80 -139
28z"/>
<path d="M6173 9482 c-38 -29 -45 -65 -33 -168 5 -51 10 -118 10 -149 0 -57
33 -241 50 -283 6 -13 14 -21 19 -17 9 5 60 152 81 232 19 74 41 276 35 314
-9 55 -48 89 -99 89 -23 0 -50 -8 -63 -18z"/>
<path d="M6730 9348 c-45 -24 -50 -49 -39 -203 6 -77 9 -205 7 -285 -2 -90 1
-146 7 -149 6 -2 20 30 32 70 12 41 43 135 68 209 63 182 86 275 76 303 -21
53 -99 82 -151 55z"/>
<path d="M7354 9215 c-51 -43 -154 -175 -154 -198 0 -10 12 -22 27 -28 22 -8
30 -7 40 7 7 10 13 24 13 31 0 27 40 91 90 146 27 30 50 60 50 66 0 20 -24 11
-66 -24z"/>
<path d="M6481 9146 c-8 -9 -14 -83 -18 -205 -6 -172 -5 -191 10 -191 18 0 26
24 56 176 31 156 35 202 21 219 -16 19 -54 19 -69 1z"/>
<path d="M5596 9048 c-25 -40 -27 -83 -11 -179 10 -62 27 -118 50 -164 18 -38
35 -79 37 -89 6 -38 26 -27 31 16 2 24 10 70 16 102 13 60 3 187 -20 262 -21
67 -75 95 -103 52z"/>
</g>
</svg>
