<?xml version="1.0" standalone="no"?>
<!DOCTYPE svg PUBLIC "-//W3C//DTD SVG 20010904//EN"
 "http://www.w3.org/TR/2001/REC-SVG-20010904/DTD/svg10.dtd">
<svg version="1.0" xmlns="http://www.w3.org/2000/svg"
 width="1278.000000pt" height="1280.000000pt" viewBox="0 0 1278.000000 1280.000000"
 preserveAspectRatio="xMidYMid meet">
<metadata>
Created by potrace 1.15, written by Peter Selinger 2001-2017
</metadata>
<g transform="translate(0.000000,1280.000000) scale(0.100000,-0.100000)"
fill="yellow" stroke="none">
<path d="M5940 12783 c0 -5 11 -42 24 -83 51 -160 61 -253 60 -550 0 -250 -3
-290 -28 -442 -71 -436 -197 -820 -451 -1373 -45 -99 -90 -201 -100 -227 l-17
-46 -96 116 c-243 297 -510 583 -803 858 -180 169 -353 326 -433 393 -10 9 4
-20 32 -64 61 -99 87 -151 146 -287 46 -109 146 -399 146 -425 0 -26 -441 380
-834 769 -127 125 -233 225 -237 222 -4 -2 5 -32 21 -67 80 -171 146 -578 180
-1112 6 -93 15 -408 20 -700 7 -459 11 -548 29 -665 12 -74 21 -137 21 -138 0
-2 -30 18 -67 44 -278 196 -518 476 -763 889 -93 157 -120 198 -127 192 -8 -8
17 -274 42 -448 29 -199 73 -430 122 -632 19 -82 33 -150 30 -153 -7 -7 -386
78 -677 152 -419 107 -872 240 -1349 395 -230 75 -289 82 -181 22 131 -72 269
-182 453 -363 366 -357 685 -794 1043 -1427 121 -214 214 -360 303 -473 l51
-65 -63 -7 c-256 -31 -343 -43 -497 -69 -315 -52 -645 -132 -935 -226 -106
-34 -423 -156 -533 -205 l-53 -24 168 -12 c373 -27 747 -105 1103 -232 80 -28
153 -54 163 -57 30 -9 19 -19 -65 -57 -478 -219 -953 -355 -1545 -441 -130
-19 -239 -37 -241 -40 -3 -3 -1 -9 4 -14 5 -5 263 -121 574 -259 311 -137 736
-327 945 -422 209 -94 434 -191 501 -215 193 -70 396 -117 657 -150 59 -8 57
-11 -58 -100 -132 -102 -255 -181 -397 -255 -264 -137 -483 -215 -830 -296
-115 -26 -208 -51 -208 -55 0 -9 122 -56 255 -99 138 -44 383 -104 555 -136
80 -15 147 -29 148 -30 2 -1 -41 -63 -96 -136 -336 -449 -552 -885 -728 -1473
-25 -82 -48 -158 -51 -168 -12 -40 17 -13 43 40 35 69 169 213 262 281 374
275 906 426 1712 487 217 16 352 35 488 66 45 10 85 19 87 19 16 0 -2 -90 -56
-284 -90 -330 -321 -1137 -380 -1331 -67 -222 -67 -221 -25 -142 77 146 162
256 319 415 75 75 113 108 115 98 10 -45 -70 -564 -126 -829 -31 -144 -28
-176 12 -121 142 195 677 678 1392 1256 155 125 328 269 384 320 l103 92 -7
-139 c-16 -321 -66 -584 -182 -952 -52 -166 -61 -203 -48 -203 8 0 175 116
309 215 329 244 576 466 713 640 22 27 24 28 34 12 38 -68 464 -616 687 -882
193 -231 680 -786 837 -954 28 -31 24 1 -11 89 -182 455 -189 1155 -19 1950
20 90 38 168 40 172 3 5 51 -34 107 -86 370 -344 803 -603 1319 -790 135 -49
390 -128 395 -122 2 1 -22 20 -52 41 -77 52 -201 186 -269 289 -58 90 -138
237 -131 244 2 2 106 -30 232 -72 356 -117 717 -216 1261 -345 240 -57 222
-54 222 -42 0 5 -14 14 -31 20 -57 20 -171 104 -258 190 -316 314 -592 881
-789 1621 -72 270 -70 254 -37 246 49 -12 207 -77 310 -126 219 -105 421 -243
675 -461 113 -96 156 -128 158 -116 10 51 -99 397 -198 633 -65 152 -254 533
-328 659 l-41 70 302 27 c332 29 479 43 1292 123 303 30 578 57 613 61 67 6
85 27 32 37 -67 14 -358 137 -545 232 -466 235 -850 524 -1180 890 -49 55
-121 132 -158 172 l-69 72 44 22 c134 68 614 352 918 544 85 54 224 141 307
193 84 53 151 97 150 98 -1 1 -36 -4 -78 -11 -608 -106 -1252 -48 -1680 152
l-97 45 82 71 c229 200 1716 1721 1716 1757 0 16 -15 12 -35 -10 -51 -56 -206
-130 -378 -179 -326 -94 -753 -136 -1309 -130 -163 2 -299 7 -303 11 -3 3 2
23 13 45 100 194 217 537 276 803 21 94 76 410 76 436 0 3 -19 -12 -41 -35
-116 -116 -434 -278 -844 -429 -60 -22 -118 -44 -128 -47 -14 -6 -12 3 12 58
45 101 118 317 150 446 90 357 129 673 138 1116 7 328 -13 958 -31 952 -6 -2
-14 -33 -18 -69 -17 -171 -158 -399 -393 -633 -258 -258 -560 -477 -1030 -747
-104 -60 -194 -114 -199 -119 -19 -18 -23 -8 -30 79 -40 517 -168 1125 -369
1751 l-34 105 -6 -190 c-11 -331 -72 -621 -204 -973 -73 -194 -285 -611 -311
-611 -4 0 -30 49 -58 108 -29 59 -116 240 -194 402 -240 498 -755 1631 -915
2013 -15 37 -32 67 -37 67 -4 0 -8 -3 -8 -7z"/>
</g>
</svg>
