<?xml version="1.0" standalone="no"?>
<!DOCTYPE svg PUBLIC "-//W3C//DTD SVG 20010904//EN"
 "http://www.w3.org/TR/2001/REC-SVG-20010904/DTD/svg10.dtd">
<svg version="1.0" xmlns="http://www.w3.org/2000/svg"
 width="1280.000000pt" height="640.000000pt" viewBox="0 0 1280.000000 640.000000"
 preserveAspectRatio="xMidYMid meet">
<metadata>
Created by potrace 1.15, written by Peter Selinger 2001-2017
</metadata>
<g transform="translate(0.000000,640.000000) scale(0.100000,-0.100000)"
fill="green" stroke="none">
<path d="M6371 5219 c-1 -206 -29 -719 -47 -857 l-5 -43 -35 43 c-60 75 -150
274 -229 506 -42 123 -83 238 -90 255 l-13 31 -16 -54 c-51 -171 -47 -313 19
-595 25 -110 48 -206 50 -214 8 -22 -81 -4 -160 33 -126 60 -160 100 -304 356
-105 187 -133 223 -85 110 47 -113 179 -507 249 -748 31 -106 59 -200 62 -210
5 -12 -3 -9 -28 10 -276 219 -561 341 -833 355 -106 5 -118 4 -110 -10 10 -18
226 -238 368 -375 l96 -93 -42 6 c-24 3 -85 11 -135 19 -51 7 -93 10 -93 7 0
-10 169 -129 302 -214 68 -43 124 -82 126 -86 3 -8 -136 -65 -298 -122 l-95
-33 218 -37 c119 -19 220 -38 223 -41 3 -4 -8 -9 -25 -13 -17 -4 -29 -10 -27
-14 3 -4 72 -16 153 -27 81 -10 138 -20 126 -22 -22 -3 -20 -6 22 -58 24 -31
59 -80 77 -109 18 -30 36 -55 39 -55 3 0 34 23 68 50 35 28 77 58 93 66 30 16
31 15 75 -28 24 -23 65 -76 90 -115 46 -73 56 -82 68 -63 3 5 35 31 71 56 l65
47 22 -21 c54 -50 244 -124 412 -162 55 -12 143 -37 196 -55 53 -18 150 -46
215 -61 102 -24 141 -28 274 -29 124 0 161 3 184 16 l29 16 -54 17 c-74 24
-177 86 -241 146 l-53 49 72 1 c195 1 544 67 813 155 154 51 360 134 360 146
0 12 -163 67 -310 106 -74 19 -148 42 -165 51 -52 26 -225 72 -335 88 -165 24
-170 25 -170 30 0 32 103 141 200 211 68 49 229 149 375 232 61 35 130 74 153
88 l44 25 -23 24 c-38 41 -99 58 -187 52 -100 -7 -182 -32 -400 -122 -215 -88
-327 -129 -341 -125 -6 2 5 28 26 59 35 54 141 162 394 405 127 122 205 224
234 306 8 23 14 44 12 45 -2 2 -131 -35 -288 -82 -397 -119 -574 -210 -683
-351 l-41 -53 -17 23 c-53 67 -76 202 -58 342 14 113 47 211 154 463 47 109
86 202 86 205 0 13 -56 -15 -116 -59 -162 -115 -391 -442 -410 -584 -4 -27 -9
-50 -13 -50 -6 0 -99 244 -241 635 -48 133 -90 247 -93 255 -3 8 -6 -60 -6
-151z"/>
<path d="M1897 4508 c-179 -309 -339 -689 -385 -920 l-19 -93 -21 70 c-11 39
-30 106 -42 150 -48 175 -159 420 -256 566 -49 74 -213 249 -233 249 -19 0
-22 -43 -24 -385 l-2 -340 27 -100 c15 -55 46 -136 69 -180 l41 -80 -229 225
c-235 232 -329 308 -468 380 -82 42 -200 83 -269 93 -47 7 -53 35 59 -293 88
-262 176 -461 258 -587 l44 -68 -176 0 c-152 0 -182 -3 -218 -19 -92 -41 -59
-98 110 -187 42 -22 66 -40 57 -42 -191 -58 -182 -109 41 -227 l89 -47 -40
-18 c-22 -10 -40 -21 -40 -25 0 -8 217 -56 342 -74 53 -8 116 -20 140 -27 l43
-13 -63 -7 c-35 -4 -89 -15 -120 -24 -65 -19 -252 -104 -252 -115 0 -9 170
-46 300 -65 104 -16 344 -20 402 -6 37 9 38 9 43 -28 15 -97 25 -142 40 -178
15 -34 18 -36 29 -20 13 17 32 25 22 8 -11 -18 16 -187 37 -234 l22 -49 43 84
c47 94 92 218 93 257 0 18 7 6 24 -38 13 -35 40 -88 60 -117 136 -197 514
-415 803 -464 40 -7 75 -10 78 -8 8 9 -37 164 -80 272 -24 61 -56 143 -71 181
-14 39 -49 112 -76 164 -28 51 -44 91 -36 88 46 -17 515 -148 582 -162 44 -9
129 -19 189 -22 l109 -6 -6 55 c-6 61 -24 103 -68 159 -21 26 -29 48 -29 76 0
60 -43 134 -118 205 -73 68 -159 122 -344 214 -65 33 -118 61 -118 65 0 11
173 -13 359 -51 252 -51 441 -73 441 -52 0 11 -134 74 -215 102 -94 32 -212
56 -437 87 -115 15 -208 31 -208 36 0 4 14 7 32 7 17 0 87 10 155 22 l124 21
116 -23 c133 -26 251 -37 306 -30 l39 5 -56 32 c-31 17 -83 42 -116 54 -33 12
-58 24 -56 26 2 3 52 24 111 48 136 56 231 112 299 178 47 47 93 113 84 122
-4 5 -226 -21 -290 -33 -27 -5 -48 -7 -48 -3 0 3 28 22 62 41 66 38 152 118
181 168 l18 32 -43 0 c-46 0 -184 -15 -246 -26 l-37 -7 63 66 c60 63 111 149
92 155 -18 7 -319 -156 -443 -240 -69 -47 -334 -138 -317 -109 36 60 109 113
308 219 202 109 288 174 344 261 25 40 37 81 23 81 -12 0 -289 -143 -371 -191
-49 -29 -124 -76 -166 -106 -43 -30 -78 -52 -78 -49 0 3 11 41 25 85 62 194
82 372 51 445 -8 19 -28 44 -45 57 -28 21 -31 28 -31 79 0 43 -6 65 -22 90
-23 33 -54 58 -61 50 -2 -3 -43 -76 -89 -163 l-85 -158 -5 63 c-6 63 -33 148
-48 148 -4 0 -13 -13 -19 -30 -5 -16 -11 -30 -13 -30 -2 0 -2 33 0 74 3 51 -1
90 -12 124 -25 75 -39 81 -69 30z"/>
<path d="M11481 2856 c-79 -195 -148 -360 -152 -368 -12 -18 -86 57 -207 207
-53 66 -125 151 -161 189 -70 72 -179 162 -187 153 -9 -9 -5 -169 5 -222 5
-28 25 -111 45 -186 19 -75 38 -171 41 -215 l6 -79 -22 25 c-12 14 -102 125
-200 246 -213 263 -327 377 -431 428 -40 20 -88 39 -107 42 l-33 7 7 -44 c46
-269 377 -974 565 -1199 46 -55 85 -131 111 -215 40 -131 170 -284 344 -406
321 -225 579 -268 949 -157 128 38 316 111 316 122 0 6 -16 44 -35 85 -19 40
-35 76 -35 81 0 4 107 56 238 115 130 59 241 110 245 115 4 4 -72 28 -170 54
-184 49 -283 88 -320 128 l-22 23 60 95 c65 104 183 329 176 336 -2 3 -38 -13
-79 -36 -96 -52 -178 -79 -254 -87 l-62 -6 -11 34 c-16 50 -38 191 -60 384
-22 188 -47 300 -89 388 l-27 58 -130 -345 c-91 -241 -134 -344 -143 -341 -7
3 -17 -5 -23 -18 -12 -27 -15 -49 41 238 67 341 64 518 -11 666 -16 33 -30 59
-32 59 -1 0 -67 -159 -146 -354z m-172 -1173 c2 -2 -5 -3 -17 -3 -12 0 -26 9
-32 21 -11 20 -11 20 17 3 15 -10 30 -19 32 -21z m244 -30 c-7 -2 -19 -2 -25
0 -7 3 -2 5 12 5 14 0 19 -2 13 -5z"/>
</g>
</svg>
